<?xml version="1.0" standalone="no"?>
<!DOCTYPE svg PUBLIC "-//W3C//DTD SVG 20010904//EN"
 "http://www.w3.org/TR/2001/REC-SVG-20010904/DTD/svg10.dtd">
<svg version="1.0" xmlns="http://www.w3.org/2000/svg"
 width="600.000000pt" height="600.000000pt" viewBox="0 0 600.000000 600.000000"
 preserveAspectRatio="xMidYMid meet">
<metadata>
Created by potrace 1.11, written by Peter Selinger 2001-2013
</metadata>
<g transform="translate(0.000000,600.000000) scale(0.100000,-0.100000)"
fill="#000000" stroke="none">
<path d="M2807 4484 c-1 -1 -63 -5 -137 -9 -74 -4 -143 -9 -154 -11 -11 -2
-50 -6 -86 -10 -36 -3 -76 -7 -90 -9 -14 -2 -47 -7 -75 -10 -27 -3 -72 -10
-100 -15 -27 -5 -66 -12 -85 -14 -53 -8 -190 -35 -230 -46 -19 -5 -46 -11 -60
-14 -14 -3 -61 -15 -105 -26 -44 -12 -84 -23 -90 -24 -78 -20 -223 -67 -340
-111 -100 -37 -347 -153 -395 -185 -14 -9 -72 -47 -130 -85 -312 -207 -496
-437 -565 -710 -40 -156 -40 -235 0 -425 41 -189 205 -424 415 -592 176 -140
374 -254 615 -353 203 -83 362 -131 696 -210 9 -2 33 -6 54 -9 20 -4 40 -8 44
-10 3 -3 27 -7 51 -11 25 -3 83 -12 130 -20 47 -8 108 -17 135 -20 28 -3 61
-7 75 -10 14 -2 52 -7 85 -9 33 -3 94 -9 135 -13 159 -16 811 -8 940 12 30 4
97 13 160 20 72 8 118 15 230 35 58 11 116 21 130 24 14 2 52 11 85 19 33 9
71 18 85 21 52 10 187 45 230 59 25 8 72 23 105 32 158 45 498 194 587 256 14
11 29 19 33 19 9 0 120 76 210 144 187 143 346 340 415 516 36 92 68 266 63
345 -9 137 -64 322 -126 420 -142 225 -297 370 -577 538 -177 106 -360 187
-590 262 -63 20 -122 39 -130 41 -8 2 -42 11 -75 20 -33 9 -67 17 -75 19 -8 2
-55 13 -105 25 -49 12 -133 30 -185 40 -82 16 -125 23 -270 45 -73 12 -246 29
-395 41 -75 5 -533 12 -538 8z"/>
</g>
</svg>
